<svg width="226" height="226" viewBox="0 0 226 226" fill="none" xmlns="http://www.w3.org/2000/svg">
<g clip-path="url(#clip0_8_521)">
<path d="M115.022 147.53C135.281 147.53 151.704 131.107 151.704 110.848C151.704 90.589 135.281 74.1659 115.022 74.1659C94.7631 74.1659 78.34 90.589 78.34 110.848C78.34 131.107 94.7631 147.53 115.022 147.53Z" fill="#DFB099"/>
<path d="M93.9641 152.954L92.3069 136.203L125.4 130.015L144.942 177.594L110.957 216.676L86.7423 169.097L93.9641 152.954Z" fill="#DFB099"/>
<path d="M91.7753 144.588L99.0103 146.223C99.0103 146.223 93.3228 128.187 95.2533 126.466C97.1837 124.744 101.914 127.457 101.914 127.457L106.886 133.03L112.941 126.865C112.941 126.865 119.515 118.691 122.089 116.395C124.663 114.099 120.528 105.578 120.528 105.578C120.528 105.578 158.715 95.2808 144.506 76.7588C144.506 76.7588 136.175 62.2368 133.462 66.9674C130.749 71.6981 127.514 64.1849 127.514 64.1849L117.635 66.0634C117.635 66.0634 98.1389 54.5678 79.6345 79.1602C61.1301 103.753 91.7753 144.588 91.7753 144.588Z" fill="#392E25"/>
<path d="M184.012 200.915C163.965 217.168 139.164 226 113 226C89.1086 226 66.3514 218.634 47.3156 204.98C47.3495 204.623 47.3835 204.271 47.4133 203.918C47.9188 198.396 48.3691 193.026 48.6665 188.574C49.8177 171.288 90.1451 159.768 90.1451 159.768C90.1451 159.768 90.3278 159.95 90.6931 160.269C92.9191 162.223 101.955 169.309 117.8 171.288C131.93 173.056 136.581 164.674 137.987 160.66C138.412 159.436 138.54 158.616 138.54 158.616L180.018 178.204C182.724 182.07 183.782 190.397 183.99 199.755C183.999 200.142 184.007 200.524 184.012 200.915Z" fill="#DEDEDE"/>
<path d="M192.903 33.0971C171.56 11.7545 143.183 0 113 0C82.8171 0 54.4397 11.7545 33.0971 33.0971C11.7546 54.4397 0 82.8171 0 113C0 140.549 9.79194 166.594 27.736 187.159C29.448 189.126 31.2364 191.042 33.0971 192.903C33.5347 193.34 33.9765 193.778 34.4225 194.203C35.612 195.354 36.8227 196.48 38.0547 197.572C38.8023 198.239 39.5585 198.893 40.3232 199.534C40.9222 200.04 41.5212 200.537 42.1286 201.025C42.1414 201.038 42.1499 201.047 42.1626 201.055C43.8491 202.414 45.5654 203.723 47.3156 204.98C66.3514 218.634 89.1086 226 113 226C139.164 226 163.965 217.168 184.012 200.915C185.647 199.589 187.249 198.213 188.82 196.79C190.21 195.532 191.569 194.237 192.903 192.903C193.323 192.482 193.744 192.058 194.156 191.628C195.303 190.447 196.416 189.245 197.504 188.026C215.928 167.329 226 140.94 226 113C226 82.8171 214.245 54.4397 192.903 33.0971ZM197.227 186.968C196.165 188.175 195.078 189.364 193.965 190.524C192.232 192.329 190.443 194.08 188.595 195.766C187.894 196.412 187.185 197.041 186.467 197.665C185.651 198.374 184.827 199.071 183.99 199.755C177.393 205.171 170.167 209.844 162.44 213.651C159.385 215.159 156.254 216.531 153.051 217.759C140.609 222.534 127.104 225.15 113 225.15C99.389 225.15 86.3388 222.712 74.2614 218.251C69.3038 216.425 64.512 214.254 59.9113 211.769C59.2358 211.403 58.5646 211.034 57.8976 210.656C54.3887 208.668 50.9945 206.497 47.7362 204.152C47.63 204.075 47.5195 203.995 47.4133 203.918C45.0938 202.245 42.8381 200.482 40.6588 198.629C39.8601 197.954 39.07 197.27 38.2926 196.569C37.0266 195.443 35.7862 194.284 34.5755 193.094C32.2815 190.847 30.0894 188.506 27.9951 186.072C11.0834 166.429 0.849624 140.889 0.849624 113C0.849624 51.1601 51.1601 0.849624 113 0.849624C174.84 0.849624 225.15 51.1601 225.15 113C225.15 141.318 214.602 167.215 197.227 186.968Z" fill="#DEDEDE"/>
</g>
<defs>
<clipPath id="clip0_8_521">
<rect width="226" height="226" fill="white"/>
</clipPath>
</defs>
</svg>
