<svg width="345" height="306" viewBox="0 0 345 306" fill="none" xmlns="http://www.w3.org/2000/svg">
<g clip-path="url(#clip0_56_2)">
<path d="M332.429 36.7327H335.855C338.48 17.5314 318.285 2.95012 295.122 1.17004C304.219 3.15881 312.543 7.54977 319.142 13.8396C325.74 20.1294 330.345 28.0636 332.429 36.7327Z" fill="#7C543F"/>
<path d="M279.115 94.0216C277.176 93.999 275.319 93.9367 273.543 93.8346C275.386 94.1054 277.256 94.1681 279.115 94.0216Z" fill="#7C543F"/>
<path d="M236.005 47.1734C236.452 21.8812 257.602 1.29804 284.148 1.29804C287.794 0.929156 291.468 0.886301 295.122 1.17003C287.873 -0.397437 280.347 -0.389883 273.102 1.19214C265.857 2.77415 259.079 5.89005 253.27 10.3088C247.46 14.7275 242.77 20.3356 239.545 26.7173C236.321 33.099 234.645 40.0905 234.643 47.1734C234.643 71.1558 235.544 91.6165 273.543 93.8346C254.291 91.0483 235.654 67.0334 236.005 47.1734Z" fill="#7C543F"/>
<path d="M331.861 47.9123C323.159 62.0981 288.945 72.5016 284.148 93.0494C282.516 93.5599 280.827 93.8862 279.115 94.0216C280.692 94.0399 282.318 94.034 284.009 93.997C311.047 93.997 333.224 73.578 333.643 47.9123L331.861 47.9123Z" fill="#7C543F"/>
<path d="M288.033 81.6463C281.706 68.5659 278.935 54.4688 280.876 39.0248C280.576 37.2281 281.627 35.4276 283.225 35L311.872 27.3734C313.471 26.9499 315.011 28.0606 315.314 29.8563L322.472 72.4778C322.772 74.2745 321.721 76.075 320.123 76.5025L291.476 84.1292C289.877 84.5527 288.337 83.442 288.033 81.6463Z" fill="#7C543F"/>
<path d="M301.602 32.0885C302.015 29.0433 300.187 26.3084 297.519 25.98C294.852 25.6516 292.355 27.854 291.942 30.8992C291.529 33.9444 293.357 36.6792 296.024 37.0076C298.692 37.3361 301.189 35.1337 301.602 32.0885Z" fill="#7C543F"/>
<path d="M249.214 60.8033C242.886 47.7229 240.115 33.6258 242.056 18.1817C241.756 16.3851 242.807 14.5846 244.406 14.157L273.053 6.53037C274.652 6.10683 276.192 7.21754 276.495 9.01324L283.653 51.6348C283.953 53.4315 282.902 55.2319 281.304 55.6595L252.656 63.2862C251.057 63.7097 249.517 62.599 249.214 60.8033Z" fill="#7C543F"/>
<path d="M262.782 11.2454C263.195 8.20016 261.367 5.46528 258.7 5.13686C256.033 4.80843 253.535 7.01082 253.122 10.056C252.71 13.1012 254.537 15.8361 257.205 16.1645C259.872 16.4929 262.369 14.2906 262.782 11.2454Z" fill="#7C543F"/>
<path d="M288.424 202.411H0V203.306H288.424V202.411Z" fill="#39281F"/>
<path d="M117.321 96.8763C116.98 95.7416 121.737 106.142 120.606 106.267C115.452 106.831 104.031 109.371 100.442 110.739C100.28 110.721 100.118 110.703 99.9613 110.681C99.5762 110.641 99.2006 110.582 98.8297 110.515C90.4712 109.008 84.1476 102.466 83.9764 94.5689C83.9669 94.4571 83.9669 94.3408 83.9669 94.229C83.9658 93.6838 83.996 93.1389 84.0572 92.5968C84.1359 91.8565 84.271 91.1227 84.4614 90.4011L84.4424 90.3967C81.1142 87.4185 82.5168 81.8958 86.7578 79.5659C88.6006 78.5562 90.6443 77.9242 92.7581 77.7101C93.3313 77.6509 93.9075 77.621 94.4841 77.6207H99.8995C101.02 77.3906 102.156 77.2337 103.299 77.1511H103.309C114.211 76.3596 122.807 82.6917 122.004 90.3967C121.999 90.4056 121.989 90.4146 121.985 90.4235C121.752 90.7544 121.547 91.0675 121.366 91.3671C121.191 91.6488 121.043 91.9171 120.915 92.172C119.921 94.1396 122.475 96.6155 120.782 97.0776C118.529 97.6922 126.706 117.894 117.79 117.894C122.127 119.069 118.259 100.007 117.321 96.8763Z" fill="#1A120B"/>
<path d="M167.068 292.143L174.1 292.086L177.211 265.641L166.835 265.724L167.068 292.143Z" fill="#DFB099"/>
<path d="M189.59 302.797C189.596 303.592 189.272 304.356 188.687 304.922C188.103 305.489 187.307 305.811 186.473 305.819L172.494 305.93L170.046 301.203L169.148 305.954L163.873 306L165.205 289.054L167.04 288.938L174.525 288.446L176.94 288.292L176.983 293.087L188.213 300.345C188.633 300.617 188.978 300.982 189.218 301.409C189.458 301.837 189.586 302.313 189.59 302.797Z" fill="#1A120B"/>
<path d="M175.981 278.879C173.184 278.557 166.126 277.985 166.126 277.985C166.126 277.985 162.794 271.358 163.334 269.296C163.864 267.226 165.187 266.805 163.958 265.723C160.964 255.179 161.443 238.052 161.443 238.052C161.443 238.052 145.327 230.615 129.01 222.007C113.06 213.586 96.9163 204.048 95.4568 199.241C94.4935 195.802 93.8466 192.291 93.5233 188.745C93.2793 186.42 93.1291 184.139 93.0353 182.096C92.8147 177.418 92.9039 173.962 92.9039 173.962L113.238 173.64L126.706 173.344H128.114V175.58L131.653 181.313C131.653 181.313 137.767 188.088 137.049 188.719C136.181 189.483 136.444 190.163 139.527 190.717C140.404 190.864 141.297 190.899 142.183 190.82C147.162 190.458 149.246 193.172 149.368 193.767C150.203 197.966 158.58 207.089 166.426 214.874H166.431C173.672 222.065 180.458 228.111 180.458 228.111L180.843 235.825L182.649 271.89C182.649 271.89 179.261 270.083 182.288 273.978C185.315 277.878 178.778 279.197 175.981 278.879Z" fill="#1A120B"/>
<path d="M252.268 195.019L255.139 188.902L231.194 175.206L226.958 184.233L252.268 195.019Z" fill="#DFB099"/>
<path d="M271.803 179.933C272.564 180.258 273.158 180.857 273.456 181.599C273.753 182.341 273.73 183.165 273.391 183.891L267.682 196.052L262.153 196.206L266.314 198.961L264.163 203.551L248.545 195.349L249.197 193.71L251.841 187.019L252.699 184.862L257.292 186.82L268.89 180.107C269.324 179.856 269.817 179.708 270.324 179.678C270.832 179.648 271.339 179.735 271.803 179.933Z" fill="#1A120B"/>
<path d="M239.951 180.213C239.935 180.248 239.915 180.28 239.899 180.308C238.591 182.597 236.444 187.891 236.31 188.217C236.306 188.223 236.304 188.23 236.303 188.236C236.303 188.236 229.22 187.888 227.409 186.651C225.595 185.404 228.34 187.375 224.157 184.768C221.994 183.412 214.586 181.295 207.951 179.566C201.778 177.957 196.277 176.692 196.277 176.692C196.277 176.692 191.415 180.909 184.37 186.737L184.367 186.74C177.824 192.141 169.392 198.932 161.221 205.013C143.727 209.916 125.263 214.165 120.647 211.778C117.402 210.016 114.325 207.988 111.45 205.717L116.203 193.845L128.773 181.301L142.004 176.178L147.18 174.172L154.428 171.37L193.67 156.177L237.127 170.52C237.127 170.52 234.1 172.851 239.026 171.621C243.886 170.411 241.318 177.76 239.951 180.213Z" fill="#1A120B"/>
<path d="M102.773 111.186H116.851L119.068 115.848L128.496 119.852C129.722 120.373 130.803 121.162 131.65 122.154C132.498 123.146 133.089 124.315 133.375 125.565C136.77 140.354 132.476 143.426 132.338 148.302C131.868 164.848 129.45 168.139 129.721 172.224C129.802 173.446 130.585 178.279 133.104 177.824C135.623 177.369 134.265 179.28 134.861 180.023C135.376 180.665 138.085 179.813 136.385 181.945C134.684 184.077 141.954 189.89 137.5 189.89C129.053 189.89 112.159 193.915 105.589 193.915C99.0186 193.915 93.9415 195.771 91.0408 195.704C89.2729 195.662 89.8257 187.807 90.5323 181.004C90.6923 179.464 93.7964 179.504 91.0108 176.648C88.2251 173.792 91.5042 172.307 91.5101 171.556C91.5164 170.757 93.0893 168.746 91.1265 165.455C89.1637 162.165 90.9731 163.526 90.8878 162.493C90.2308 154.531 89.2893 144.379 89.2893 144.379L85.1392 133.249C84.0784 130.404 84.2187 127.278 85.5304 124.529C86.8421 121.781 89.2228 119.625 92.1702 118.518L97.0383 116.688L102.773 111.186Z" fill="#DEDEDE"/>
<path d="M201.649 107.081C201.336 107.637 200.9 108.122 200.371 108.502C199.842 108.881 199.233 109.147 198.586 109.281C197.939 109.414 197.269 109.412 196.622 109.275C195.976 109.137 195.369 108.867 194.843 108.484L175.01 119.183L170.556 114.684L194.209 102.14C194.951 101.344 195.975 100.836 197.085 100.71C198.195 100.585 199.314 100.853 200.231 101.462C201.149 102.071 201.799 102.979 202.061 104.015C202.322 105.05 202.175 106.141 201.649 107.081Z" fill="#DFB099"/>
<path d="M112.353 132.336L112.051 135.781L151.533 135.297L190.834 114.244L185.089 105.817L150.545 119.657L125.995 120.131C122.539 120.198 119.233 121.483 116.713 123.736C114.194 125.99 112.64 129.054 112.353 132.336Z" fill="#DEDEDE"/>
<path d="M107.588 108.73C114.67 108.73 120.41 103.26 120.41 96.5119C120.41 89.7641 114.67 84.2939 107.588 84.2939C100.507 84.2939 94.7665 89.7641 94.7665 96.5119C94.7665 103.26 100.507 108.73 107.588 108.73Z" fill="#DFB099"/>
<path d="M122.004 91.0629C121.79 91.1703 121.58 91.2687 121.366 91.367C121.143 91.4699 120.92 91.5727 120.696 91.6666C116.403 93.5224 112.908 93.7281 110.787 91.0629C110.731 89.6606 110.4 88.2806 109.813 86.9936C109.917 88.4318 109.519 89.8624 108.681 91.0629H104.412C100.014 93.8444 97.7552 94.1351 100.808 103.267C101.659 105.811 105.043 120.617 103.711 122.813C103.326 122.773 99.2005 110.582 98.8297 110.515C90.4711 109.008 84.1475 102.466 83.9764 94.5688C83.9859 94.1664 84.0144 93.7639 84.0572 93.3704C84.6079 92.5817 85.213 91.8287 85.8687 91.1166C85.8654 89.0056 86.3747 86.9226 87.3569 85.0305C88.5994 82.6332 90.5364 80.6252 92.9388 79.2439C94.3707 78.5823 95.8636 78.0479 97.3986 77.6475C97.4366 77.6385 97.4699 77.6296 97.5079 77.6207C97.9786 77.4999 98.4588 77.3881 98.939 77.2942C99.9311 77.0946 100.934 76.9498 101.944 76.8605C102.015 76.856 102.087 76.8515 102.153 76.8515C102.556 76.8524 102.952 76.9558 103.299 77.1511C103.304 77.1511 103.304 77.1556 103.309 77.1556C103.557 77.2937 103.773 77.4777 103.946 77.6967C104.249 78.0651 104.413 78.5205 104.412 78.989H109.166C109.342 78.989 109.518 78.9935 109.694 79.0024C112.867 79.1058 115.886 80.3338 118.159 82.4462C120.432 84.5585 121.796 87.4032 121.985 90.4235C121.999 90.6381 122.004 90.8483 122.004 91.0629Z" fill="#1A120B"/>
<path d="M90.1022 93.2989C94.7674 93.2989 98.5493 89.6951 98.5493 85.2496C98.5493 80.8041 94.7674 77.2003 90.1022 77.2003C85.437 77.2003 81.6552 80.8041 81.6552 85.2496C81.6552 89.6951 85.437 93.2989 90.1022 93.2989Z" fill="#1A120B"/>
<path d="M100.426 78.989C100.588 83.4319 96.6446 87.0383 91.9794 87.0383C89.7391 87.0383 87.5905 86.1903 86.0064 84.6807C84.4222 83.1712 83.5323 81.1238 83.5323 78.989C83.5323 74.5435 89.1822 74.4975 91.9794 70.9398C95.9364 65.9068 100.209 72.9975 100.426 78.989Z" fill="#1A120B"/>
<path d="M111.471 204.907C110.159 186.361 113.999 168.916 124.663 152.929C124.931 151.877 125.626 150.969 126.596 150.405C127.565 149.841 128.73 149.667 129.834 149.92L171.029 159.414C172.133 159.67 173.085 160.332 173.677 161.256C174.269 162.18 174.452 163.289 174.187 164.342L160.995 216.32C160.726 217.372 160.031 218.279 159.062 218.843C158.092 219.407 156.928 219.582 155.823 219.328L114.628 209.835C113.524 209.579 112.572 208.917 111.98 207.993C111.388 207.069 111.205 205.959 111.471 204.907Z" fill="#7C543F"/>
<path opacity="0.2" d="M119.544 208.846C118.44 208.59 117.488 207.928 116.896 207.004C116.304 206.08 116.121 204.97 116.387 203.918C115.075 185.372 118.915 167.927 129.579 151.94C129.759 151.25 130.126 150.618 130.645 150.107L129.834 149.92C128.73 149.667 127.565 149.841 126.596 150.405C125.626 150.969 124.931 151.877 124.663 152.928C113.999 168.915 110.159 186.361 111.471 204.907C111.205 205.959 111.388 207.069 111.98 207.993C112.572 208.917 113.524 209.579 114.628 209.834L155.823 219.328C156.555 219.495 157.321 219.473 158.042 219.267C158.763 219.06 159.414 218.676 159.928 218.153L119.544 208.846Z" fill="black"/>
<path d="M156.842 186.964L129.218 180.676C128.779 180.575 128.4 180.313 128.163 179.946C127.927 179.579 127.853 179.138 127.958 178.719C128.063 178.3 128.338 177.939 128.723 177.713C129.108 177.488 129.571 177.417 130.01 177.517L157.634 183.806C158.073 183.907 158.451 184.17 158.686 184.536C158.922 184.903 158.995 185.343 158.89 185.761C158.785 186.179 158.511 186.54 158.127 186.766C157.743 186.991 157.281 187.063 156.842 186.964Z" fill="white"/>
<path d="M137.467 173.398L131.39 172.014C130.951 171.915 130.57 171.653 130.333 171.287C130.096 170.921 130.021 170.48 130.124 170.062C130.228 169.643 130.501 169.28 130.885 169.053C131.269 168.827 131.732 168.755 132.171 168.853L132.182 168.855L138.259 170.239C138.697 170.34 139.076 170.603 139.311 170.969C139.546 171.336 139.62 171.776 139.515 172.194C139.41 172.612 139.136 172.973 138.752 173.199C138.368 173.425 137.906 173.496 137.467 173.398Z" fill="white"/>
<path d="M153.361 200.851L125.737 194.562C125.298 194.461 124.92 194.199 124.684 193.832C124.449 193.465 124.375 193.025 124.48 192.607C124.585 192.189 124.859 191.827 125.243 191.602C125.627 191.376 126.089 191.305 126.528 191.404L154.153 197.693C154.371 197.741 154.577 197.83 154.759 197.955C154.941 198.079 155.095 198.237 155.213 198.418C155.331 198.6 155.41 198.802 155.446 199.012C155.482 199.223 155.475 199.438 155.423 199.646C155.372 199.854 155.278 200.05 155.147 200.223C155.016 200.396 154.851 200.543 154.66 200.655C154.469 200.767 154.257 200.843 154.036 200.877C153.815 200.911 153.589 200.903 153.371 200.854L153.361 200.851Z" fill="white"/>
<path d="M155.102 193.908L127.477 187.619C127.038 187.519 126.657 187.257 126.42 186.891C126.183 186.524 126.109 186.083 126.213 185.664C126.318 185.245 126.593 184.882 126.978 184.656C127.362 184.431 127.826 184.36 128.265 184.459L128.269 184.46L155.893 190.749C156.332 190.85 156.71 191.113 156.946 191.479C157.181 191.846 157.255 192.287 157.15 192.705C157.045 193.123 156.771 193.484 156.387 193.71C156.003 193.935 155.541 194.007 155.102 193.908Z" fill="white"/>
<path d="M149.262 161.292C153.186 161.292 156.367 158.261 156.367 154.521C156.367 150.782 153.186 147.75 149.262 147.75C145.338 147.75 142.156 150.782 142.156 154.521C142.156 158.261 145.338 161.292 149.262 161.292Z" fill="#39281F"/>
<path d="M113.435 208.783C112.856 208.478 112.353 208.056 111.961 207.547C111.569 207.039 111.298 206.455 111.166 205.837C111.035 205.218 111.045 204.58 111.198 203.966C111.351 203.352 111.641 202.776 112.05 202.28L101.078 183.246L105.857 179.059L118.715 201.757C119.541 202.475 120.062 203.457 120.179 204.516C120.296 205.576 120.001 206.639 119.35 207.505C118.699 208.371 117.738 208.979 116.648 209.215C115.558 209.451 114.415 209.297 113.435 208.783Z" fill="#DFB099"/>
<path d="M100.62 124.528L88.8191 123.443C88.2685 123.392 87.713 123.452 87.188 123.618C86.6631 123.784 86.1804 124.053 85.771 124.407C85.3615 124.761 85.0343 125.193 84.8104 125.675C84.5865 126.157 84.4709 126.678 84.4709 127.206V160.669L106.058 198.387L114.974 193.02L100.896 159.929L100.62 124.528Z" fill="#DEDEDE"/>
<path d="M193.784 121.812C196.52 103.408 204.058 87.0942 217.957 73.5507C218.448 72.5744 219.324 71.8234 220.395 71.4623C221.466 71.1013 222.644 71.1598 223.669 71.6249L261.918 89.0213C262.943 89.4886 263.731 90.3241 264.11 91.3445C264.489 92.3648 264.428 93.4868 263.939 94.4641L239.766 142.725C239.276 143.702 238.399 144.453 237.328 144.814C236.257 145.175 235.08 145.116 234.054 144.651L195.805 127.255C194.781 126.788 193.992 125.952 193.613 124.932C193.235 123.911 193.296 122.789 193.784 121.812Z" fill="#7C543F"/>
<path opacity="0.2" d="M200.829 127.255C199.805 126.787 199.017 125.952 198.638 124.932C198.259 123.911 198.32 122.789 198.808 121.812C201.545 103.408 209.083 87.0941 222.982 73.5506C223.307 72.9111 223.804 72.3649 224.422 71.9672L223.669 71.6248C222.644 71.1597 221.466 71.1013 220.395 71.4623C219.325 71.8233 218.448 72.5743 217.957 73.5506C204.058 87.0942 196.52 103.408 193.784 121.812C193.296 122.789 193.235 123.911 193.614 124.932C193.992 125.952 194.781 126.787 195.805 127.255L234.054 144.651C234.735 144.958 235.488 145.088 236.239 145.028C236.989 144.968 237.709 144.72 238.326 144.309L200.829 127.255Z" fill="black"/>
<path d="M242.066 113.186L216.401 101.596C215.992 101.411 215.677 101.08 215.525 100.674C215.374 100.269 215.397 99.8222 215.59 99.4331C215.784 99.0439 216.132 98.7439 216.557 98.5991C216.983 98.4543 217.452 98.4766 217.86 98.661L243.526 110.251C243.932 110.436 244.246 110.768 244.396 111.173C244.547 111.578 244.523 112.023 244.33 112.411C244.137 112.8 243.791 113.099 243.366 113.244C242.942 113.389 242.474 113.368 242.066 113.186Z" fill="white"/>
<path d="M226.049 96.0983L220.403 93.5485C220.2 93.4579 220.018 93.3301 219.867 93.1725C219.716 93.0148 219.599 92.8304 219.523 92.6297C219.447 92.429 219.413 92.2159 219.424 92.0028C219.434 91.7896 219.488 91.5805 219.584 91.3874C219.679 91.1943 219.813 91.0209 219.979 90.8773C220.144 90.7336 220.338 90.6225 220.549 90.5502C220.76 90.478 220.983 90.446 221.207 90.4561C221.431 90.4662 221.65 90.5183 221.853 90.6092L221.862 90.6137L227.509 93.1635C227.916 93.3487 228.229 93.6801 228.38 94.0852C228.531 94.4902 228.508 94.9358 228.314 95.3242C228.121 95.7127 227.774 96.0123 227.35 96.1574C226.925 96.3025 226.457 96.2812 226.049 96.0983Z" fill="white"/>
<path d="M235.65 126.088L209.984 114.498C209.577 114.313 209.264 113.981 209.113 113.576C208.962 113.171 208.985 112.726 209.178 112.337C209.372 111.949 209.719 111.649 210.143 111.504C210.568 111.359 211.035 111.38 211.444 111.563L237.109 123.153C237.312 123.244 237.493 123.372 237.644 123.529C237.795 123.687 237.911 123.871 237.987 124.072C238.063 124.273 238.097 124.486 238.087 124.699C238.076 124.912 238.022 125.121 237.927 125.314C237.831 125.507 237.697 125.68 237.532 125.823C237.366 125.967 237.173 126.078 236.962 126.15C236.752 126.223 236.528 126.255 236.305 126.245C236.081 126.235 235.862 126.183 235.659 126.092L235.65 126.088Z" fill="white"/>
<path d="M238.858 119.637L213.192 108.047C212.784 107.863 212.468 107.532 212.316 107.126C212.164 106.721 212.186 106.275 212.379 105.885C212.573 105.496 212.92 105.195 213.345 105.05C213.771 104.905 214.24 104.927 214.648 105.111L214.652 105.112L240.317 116.702C240.724 116.887 241.038 117.219 241.188 117.624C241.339 118.029 241.316 118.474 241.123 118.863C240.929 119.251 240.583 119.551 240.158 119.696C239.734 119.841 239.266 119.82 238.858 119.637Z" fill="white"/>
<path d="M241.681 86.7209C245.605 86.7209 248.786 83.6895 248.786 79.9502C248.786 76.2108 245.605 73.1794 241.681 73.1794C237.757 73.1794 234.575 76.2108 234.575 79.9502C234.575 83.6895 237.757 86.7209 241.681 86.7209Z" fill="#39281F"/>
<path d="M302.997 145.655C295.291 129.725 291.916 112.557 294.28 93.7482C293.914 91.5601 295.194 89.3675 297.141 88.8467L332.029 79.5587C333.976 79.0429 335.851 80.3955 336.221 82.5824L344.938 134.489C345.303 136.677 344.023 138.869 342.077 139.39L307.189 148.678C305.242 149.194 303.366 147.841 302.997 145.655Z" fill="#7C543F"/>
<path opacity="0.2" d="M310.585 145.683C308.638 146.199 306.762 144.846 306.393 142.659C298.687 126.729 295.312 109.561 297.676 90.7527C297.564 90.0543 297.616 89.3411 297.827 88.6639L297.141 88.8467C295.194 89.3675 293.914 91.5601 294.279 93.7481C291.916 112.557 295.29 129.725 302.997 145.654C303.366 147.841 305.241 149.194 307.189 148.678L342.077 139.39C342.741 139.178 343.338 138.808 343.812 138.317C344.286 137.825 344.621 137.226 344.786 136.578L310.585 145.683Z" fill="black"/>
<path d="M331.155 110.168L307.788 116.465C307.014 116.672 306.267 116.135 306.119 115.265C306.035 114.865 306.103 114.449 306.31 114.092C306.518 113.735 306.851 113.46 307.251 113.315L330.618 107.018C331.393 106.812 332.139 107.351 332.285 108.221C332.368 108.621 332.3 109.035 332.093 109.391C331.887 109.747 331.554 110.023 331.155 110.168Z" fill="white"/>
<path d="M311.456 106.441L306.315 107.827C305.542 108.038 304.792 107.505 304.641 106.636C304.556 106.235 304.622 105.818 304.829 105.46C305.035 105.102 305.369 104.825 305.769 104.679L305.778 104.677L310.919 103.291C311.694 103.085 312.44 103.624 312.586 104.495C312.669 104.894 312.601 105.308 312.394 105.665C312.187 106.021 311.855 106.296 311.456 106.441Z" fill="white"/>
<path d="M333.517 124.017L310.15 130.314C309.375 130.52 308.629 129.981 308.483 129.111C308.4 128.711 308.468 128.297 308.675 127.941C308.881 127.584 309.214 127.309 309.613 127.164L332.98 120.867C333.753 120.656 334.503 121.189 334.654 122.058C334.739 122.459 334.673 122.875 334.466 123.234C334.26 123.592 333.926 123.869 333.526 124.015L333.517 124.017Z" fill="white"/>
<path d="M332.336 117.093L308.969 123.39C308.195 123.599 307.447 123.064 307.297 122.195C307.212 121.794 307.28 121.377 307.487 121.02C307.694 120.662 308.028 120.385 308.429 120.24L308.432 120.239L331.799 113.942C332.574 113.736 333.32 114.275 333.466 115.146C333.549 115.545 333.481 115.96 333.274 116.316C333.067 116.672 332.735 116.947 332.336 117.093Z" fill="white"/>
<path d="M319.521 85.3009C320.023 81.5923 317.798 78.2617 314.549 77.8617C311.3 77.4617 308.259 80.1439 307.756 83.8524C307.254 87.561 309.479 90.8916 312.728 91.2916C315.977 91.6916 319.018 89.0094 319.521 85.3009Z" fill="#39281F"/>
</g>
<defs>
<clipPath id="clip0_56_2">
<rect width="345" height="306" fill="white"/>
</clipPath>
</defs>
</svg>
