<svg width="320" height="309" viewBox="0 0 320 309" fill="none" xmlns="http://www.w3.org/2000/svg">
<path d="M26.4075 19.7031C26.8204 16.6579 24.9927 13.923 22.3252 13.5946C19.6577 13.2662 17.1605 15.4686 16.7476 18.5138C16.3347 21.559 18.1624 24.2938 20.8299 24.6223C23.4974 24.9507 25.9946 22.7483 26.4075 19.7031Z" fill="#7C543F"/>
<path d="M12.7678 70.363C6.44023 57.2826 3.66933 43.1855 5.61001 27.7414C5.31018 25.9448 6.36118 24.1443 7.9594 23.7167L36.6067 16.0901C38.2056 15.6665 39.7455 16.7772 40.049 18.5729L47.2068 61.1945C47.5067 62.9912 46.4557 64.7916 44.8575 65.2192L16.2101 72.8458C14.6112 73.2694 13.0713 72.1587 12.7678 70.363Z" fill="#7C543F"/>
<path d="M68.4075 30.7031C68.8204 27.6579 66.9927 24.923 64.3252 24.5946C61.6577 24.2662 59.1605 26.4686 58.7476 29.5138C58.3347 32.559 60.1624 35.2938 62.8299 35.6223C65.4974 35.9507 67.9946 33.7483 68.4075 30.7031Z" fill="#7C543F"/>
<g clip-path="url(#clip0_96_126)">
<path d="M209.665 109.681L211.26 130.484L234.377 120.64L221.337 99.4812L209.665 109.681Z" fill="#DFB099"/>
<path d="M208.972 116.019C218.489 116.019 226.204 108.153 226.204 98.4506C226.204 88.7481 218.489 80.8826 208.972 80.8826C199.455 80.8826 191.74 88.7481 191.74 98.4506C191.74 108.153 199.455 116.019 208.972 116.019Z" fill="#DFB099"/>
<path d="M176.733 262.247L179.651 288.931L159.225 286.046L165.895 261.398L176.733 262.247Z" fill="#DFB099"/>
<path d="M256.352 266.072L259.27 292.755L238.844 289.871L245.514 265.222L256.352 266.072Z" fill="#DFB099"/>
<path d="M207.789 185.539C207.51 185.539 185.218 186.68 170.49 187.436C163.519 187.793 158.213 193.944 158.753 201.039L164.019 270.11L179.026 270.534L179.392 214.862L209.039 216.562L207.789 185.539Z" fill="#1A120B"/>
<path d="M273.235 185.114C273.235 185.114 276.987 214.438 274.069 217.412C271.151 220.387 179.651 215.075 179.651 215.075C179.651 215.075 199.724 185.523 203.34 184.681C206.955 183.839 264.481 180.864 264.481 180.864L273.235 185.114Z" fill="#1A120B"/>
<path d="M154.699 148.195C151.215 143.227 150.905 137.367 154.006 135.107C157.108 132.846 162.446 135.042 165.931 140.012C167.35 141.978 168.287 144.262 168.662 146.673L183.166 167.914L174.912 173.74L159.999 152.986C157.882 151.844 156.065 150.201 154.699 148.195Z" fill="#DFB099"/>
<path d="M208.831 122.855L230.091 113.93L270.109 176.827C270.109 176.827 242.179 183.202 232.592 184.477C223.004 185.752 212.166 180.652 212.166 180.652L208.831 122.855Z" fill="#7C543F"/>
<path d="M234.676 133.479L226.964 108.955L236.969 116.693C236.969 116.693 265.315 135.817 265.315 143.891C265.315 151.966 274.069 176.615 274.069 176.615C274.069 176.615 283.865 184.902 280.53 192.551C277.195 200.201 284.907 199.138 285.741 204.663C286.574 210.188 273.86 217.625 273.86 217.625C273.86 217.625 270.734 186.389 260.729 186.389C250.725 186.389 234.676 133.479 234.676 133.479Z" fill="#DEDEDE"/>
<path d="M210.325 122.228L199.869 126.467C199.869 126.467 201.536 156.216 203.203 158.766C204.871 161.315 210.707 174.915 210.707 174.915V179.347C210.707 179.347 199.035 182.989 199.452 185.114C199.869 187.239 226.964 193.189 226.964 193.189C226.964 193.189 221.545 176.19 218.21 170.665C214.875 165.14 210.325 122.228 210.325 122.228Z" fill="#DEDEDE"/>
<path d="M234.884 116.268C234.884 116.268 258.228 114.993 263.23 127.742C268.233 140.492 272.401 182.139 272.401 182.139L221.545 210.347L212.791 196.589L246.973 169.39L234.884 116.268Z" fill="#DEDEDE"/>
<path d="M203.62 126.467C203.62 126.467 191.531 124.767 189.447 139.217C187.363 153.666 188.687 155.578 188.687 155.578L185.279 163.865L174.024 151.116L163.185 158.341C163.185 158.341 182.778 190.639 190.698 189.789C198.618 188.939 210.29 165.565 210.29 165.565L203.62 126.467Z" fill="#DEDEDE"/>
<path d="M263.997 189.805L257.811 279.034L241.762 278.397C241.762 278.397 238.219 194.039 238.219 192.764C238.219 191.489 239.887 184.264 250.308 183.839C260.729 183.414 263.997 189.805 263.997 189.805Z" fill="#1A120B"/>
<path d="M240.72 280.734C240.72 280.734 249.057 278.184 250.308 279.884C251.559 281.584 258.645 282.434 258.645 282.434L260.729 303.258C260.729 303.258 254.893 307.508 254.06 308.357C253.226 309.207 231.133 310.057 230.716 304.958C230.299 299.858 236.552 293.483 236.552 293.483L240.72 280.734Z" fill="#1A120B"/>
<path d="M179.443 274.784C179.443 274.784 181.944 272.659 182.778 278.609C183.611 284.559 186.529 294.333 182.361 295.608C178.192 296.883 136.507 297.308 136.507 293.483V289.658L140.258 286.684L147.763 285.464C147.763 285.464 162.352 271.809 164.019 271.809C165.687 271.809 171.106 277.334 171.106 277.334L179.443 274.784Z" fill="#1A120B"/>
<path d="M225.922 107.981C225.922 107.981 217.585 97.7813 214.25 98.6313C210.915 99.4812 213 100.756 213 100.756L204.662 91.4067C204.662 91.4067 197.993 88.8568 191.74 96.9314C191.74 96.9314 187.988 90.1317 191.74 86.3069C195.492 82.4821 196.742 82.9071 197.576 80.7822C198.41 78.6573 204.246 76.9574 204.246 76.9574C204.246 76.9574 203.911 73.8989 205.746 75.4282C207.58 76.9574 212.163 76.9574 212.163 76.9574C212.163 76.9574 212.189 75.2575 214.053 76.9574C215.917 78.6573 218.002 77.8074 218.002 77.8074C218.002 77.8074 218.002 80.7488 219.461 80.7655C220.92 80.7822 223.421 78.6573 223.838 80.3573C224.255 82.0572 227.173 82.9071 227.589 88.0068C228.006 93.1066 225.922 107.981 225.922 107.981Z" fill="#1A120B"/>
<path d="M104.362 139.584C107.098 121.179 114.636 104.866 128.535 91.3224C129.026 90.3461 129.903 89.5951 130.973 89.2341C132.044 88.873 133.222 88.9315 134.247 89.3966L172.497 106.793C173.521 107.26 174.309 108.096 174.688 109.116C175.067 110.137 175.006 111.258 174.518 112.236L150.344 160.497C149.854 161.473 148.977 162.225 147.906 162.586C146.836 162.947 145.658 162.888 144.633 162.423L106.383 145.027C105.359 144.559 104.57 143.724 104.192 142.703C103.813 141.683 103.874 140.561 104.362 139.584Z" fill="#7C543F"/>
<path opacity="0.2" d="M111.408 145.027C110.383 144.559 109.595 143.724 109.216 142.703C108.837 141.683 108.898 140.561 109.387 139.584C112.123 121.179 119.661 104.866 133.56 91.3224C133.885 90.6829 134.382 90.1367 135 89.739L134.247 89.3966C133.222 88.9315 132.044 88.873 130.974 89.2341C129.903 89.5951 129.026 90.3461 128.535 91.3224C114.637 104.866 107.099 121.179 104.362 139.584C103.874 140.561 103.813 141.683 104.192 142.703C104.571 143.724 105.359 144.559 106.383 145.027L144.633 162.423C145.313 162.73 146.067 162.86 146.817 162.8C147.567 162.74 148.287 162.491 148.904 162.081L111.408 145.027Z" fill="black"/>
<path d="M152.644 130.957L126.979 119.368C126.57 119.183 126.256 118.852 126.104 118.446C125.952 118.04 125.975 117.594 126.169 117.205C126.362 116.816 126.71 116.516 127.136 116.371C127.561 116.226 128.03 116.248 128.438 116.433L154.104 128.023C154.511 128.208 154.824 128.539 154.974 128.944C155.125 129.349 155.102 129.795 154.908 130.183C154.715 130.571 154.369 130.871 153.944 131.016C153.52 131.161 153.052 131.14 152.644 130.957Z" fill="white"/>
<path d="M146.228 143.86L120.562 132.27C120.155 132.085 119.842 131.753 119.691 131.348C119.54 130.943 119.563 130.497 119.757 130.109C119.95 129.721 120.297 129.421 120.721 129.276C121.146 129.131 121.614 129.152 122.022 129.335L147.687 140.925C147.89 141.016 148.072 141.143 148.222 141.301C148.373 141.459 148.49 141.643 148.565 141.844C148.641 142.044 148.675 142.257 148.665 142.47C148.654 142.683 148.6 142.892 148.505 143.085C148.409 143.278 148.275 143.452 148.11 143.595C147.944 143.739 147.751 143.85 147.54 143.922C147.33 143.994 147.106 144.027 146.883 144.017C146.659 144.007 146.44 143.955 146.237 143.864L146.228 143.86Z" fill="white"/>
<path d="M146.228 143.86L120.562 132.27C120.155 132.085 119.842 131.753 119.691 131.348C119.54 130.943 119.563 130.497 119.757 130.109C119.95 129.721 120.297 129.421 120.721 129.276C121.146 129.131 121.614 129.152 122.022 129.335L147.687 140.925C147.89 141.016 148.072 141.143 148.222 141.301C148.373 141.459 148.49 141.643 148.565 141.844C148.641 142.044 148.675 142.257 148.665 142.47C148.654 142.683 148.6 142.892 148.505 143.085C148.409 143.278 148.275 143.452 148.11 143.595C147.944 143.739 147.751 143.85 147.54 143.922C147.33 143.994 147.106 144.027 146.883 144.017C146.659 144.007 146.44 143.955 146.237 143.864L146.228 143.86Z" fill="white"/>
<path d="M149.436 137.409L123.77 125.819C123.362 125.635 123.047 125.304 122.894 124.898C122.742 124.493 122.765 124.046 122.958 123.657C123.151 123.267 123.498 122.967 123.924 122.822C124.349 122.677 124.818 122.698 125.226 122.882L125.23 122.884L150.896 134.474C151.302 134.659 151.616 134.991 151.767 135.396C151.917 135.801 151.894 136.246 151.701 136.634C151.508 137.023 151.161 137.322 150.736 137.467C150.312 137.613 149.844 137.591 149.436 137.409Z" fill="white"/>
<path d="M136.627 115.644L130.981 113.094C130.778 113.004 130.596 112.876 130.445 112.718C130.294 112.561 130.177 112.376 130.101 112.175C130.025 111.975 129.991 111.762 130.002 111.548C130.012 111.335 130.067 111.126 130.162 110.933C130.257 110.74 130.391 110.567 130.557 110.423C130.723 110.279 130.916 110.168 131.127 110.096C131.338 110.024 131.561 109.992 131.785 110.002C132.009 110.012 132.228 110.064 132.431 110.155L132.44 110.159L138.087 112.709C138.494 112.894 138.807 113.226 138.958 113.631C139.109 114.036 139.086 114.482 138.892 114.87C138.699 115.258 138.352 115.558 137.928 115.703C137.503 115.848 137.035 115.827 136.627 115.644Z" fill="white"/>
</g>
<path d="M1.36219 47.1734C1.80922 21.8812 22.9589 1.29804 49.5052 1.29804C53.1509 0.929156 56.8249 0.886301 60.479 1.17003C53.2304 -0.397437 45.7045 -0.389883 38.4593 1.19214C31.2142 2.77415 24.4357 5.89005 18.6266 10.3088C12.8175 14.7275 8.12674 20.3356 4.90226 26.7173C1.67778 33.099 0.00227913 40.0905 0 47.1734C0 71.1558 0.900585 91.6165 38.8997 93.8346C19.6479 91.0483 1.01118 67.0334 1.36219 47.1734Z" fill="#7C543F"/>
<path d="M97.2185 47.9122C88.5165 62.098 54.3017 72.5016 49.5052 93.0494C47.8732 93.5599 46.184 93.8861 44.4723 94.0216C46.0489 94.0399 47.6754 94.0339 49.3657 93.9969C76.4036 93.9969 98.5815 73.5779 99.0004 47.9123L97.2185 47.9122Z" fill="#7C543F"/>
<path d="M54.1249 79.363C47.7973 66.2826 45.0264 52.1855 46.9671 36.7414C46.6672 34.9448 47.7182 33.1443 49.3165 32.7167L77.9638 25.0901C79.5627 24.6665 81.1026 25.7772 81.406 27.5729L88.5639 70.1945C88.8637 71.9912 87.8127 73.7916 86.2145 74.2192L57.5672 81.8458C55.9683 82.2694 54.4284 81.1587 54.1249 79.363Z" fill="#7C543F"/>
<path d="M203.617 258.961C187.67 251.291 174.342 239.956 164.483 223.765C162.835 222.28 162.472 219.767 163.671 218.148L185.193 189.161C186.395 187.545 188.705 187.436 190.356 188.917L229.49 224.113C231.138 225.598 231.501 228.111 230.302 229.73L208.781 258.717C207.578 260.333 205.268 260.442 203.617 258.961Z" fill="#7C543F"/>
<path opacity="0.2" d="M209.574 254.259C208.371 255.875 206.061 255.984 204.411 254.502C188.463 246.833 175.135 235.497 165.276 219.307C164.754 218.829 164.351 218.239 164.094 217.578L163.671 218.148C162.472 219.767 162.835 222.28 164.483 223.765C174.342 239.956 187.67 251.291 203.617 258.961C205.268 260.442 207.578 260.333 208.78 258.717L230.302 229.73C230.69 229.151 230.927 228.49 230.992 227.81C231.056 227.13 230.946 226.453 230.672 225.842L209.574 254.259Z" fill="black"/>
<path d="M203.564 213.659L189.197 233.134C188.72 233.778 187.801 233.823 187.143 233.234C186.829 232.973 186.623 232.606 186.563 232.197C186.503 231.789 186.592 231.365 186.815 231.003L201.182 211.528C201.66 210.885 202.58 210.842 203.236 211.433C203.55 211.693 203.754 212.06 203.814 212.468C203.874 212.875 203.786 213.297 203.564 213.659Z" fill="white"/>
<path d="M185.827 223.006L182.666 227.29C182.192 227.938 181.274 227.987 180.615 227.4C180.299 227.14 180.091 226.773 180.03 226.364C179.968 225.955 180.057 225.531 180.28 225.167L180.285 225.159L183.446 220.875C183.924 220.232 184.843 220.189 185.5 220.779C185.813 221.04 186.018 221.407 186.078 221.814C186.138 222.222 186.049 222.644 185.827 223.006Z" fill="white"/>
<path d="M214.033 223.028L199.666 242.502C199.188 243.146 198.268 243.189 197.612 242.598C197.299 242.337 197.094 241.971 197.034 241.563C196.974 241.155 197.063 240.733 197.285 240.371L211.652 220.897C212.126 220.25 213.044 220.201 213.703 220.787C214.02 221.047 214.227 221.415 214.288 221.824C214.35 222.233 214.261 222.657 214.039 223.021L214.033 223.028Z" fill="white"/>
<path d="M208.799 218.344L194.431 237.818C193.956 238.464 193.037 238.511 192.379 237.924C192.063 237.663 191.857 237.295 191.796 236.886C191.735 236.477 191.825 236.053 192.048 235.69L192.05 235.687L206.417 216.213C206.895 215.569 207.815 215.526 208.471 216.117C208.784 216.378 208.989 216.744 209.049 217.152C209.109 217.559 209.02 217.982 208.799 218.344Z" fill="white"/>
<path d="M209.326 215.97C204.012 218.791 198.277 218.282 196.517 214.834C194.757 211.386 197.637 206.306 202.953 203.485C205.062 202.328 207.411 201.703 209.805 201.662L214 198.5L220 208L214.722 211.292C213.315 213.268 211.465 214.872 209.326 215.97Z" fill="#DFB099"/>
<path d="M68.3537 145.655C60.6477 129.725 57.2731 112.557 59.6366 93.7482C59.2714 91.5601 60.5514 89.3675 62.4977 88.8467L97.3857 79.5587C99.3329 79.0429 101.208 80.3955 101.578 82.5824L110.295 134.489C110.66 136.677 109.38 138.869 107.434 139.39L72.5459 148.678C70.5986 149.194 68.7233 147.841 68.3537 145.655Z" fill="#7C543F"/>
<path opacity="0.2" d="M75.942 145.683C73.9948 146.199 72.1195 144.846 71.7499 142.659C64.0438 126.729 60.6693 109.561 63.0327 90.7527C62.9212 90.0543 62.9729 89.3411 63.1842 88.6639L62.4977 88.8467C60.5513 89.3675 59.2714 91.5601 59.6364 93.7481C57.273 112.557 60.6475 129.725 68.3536 145.654C68.7232 147.841 70.5985 149.194 72.5457 148.678L107.434 139.39C108.098 139.178 108.695 138.808 109.169 138.317C109.643 137.825 109.978 137.226 110.143 136.578L75.942 145.683Z" fill="black"/>
<path d="M96.5124 110.168L73.1455 116.465C72.371 116.672 71.6237 116.135 71.4762 115.265C71.3923 114.865 71.4601 114.449 71.6673 114.092C71.8746 113.735 72.208 113.46 72.6083 113.315L95.9752 107.018C96.7499 106.812 97.4963 107.351 97.6422 108.221C97.7251 108.621 97.6572 109.035 97.4504 109.391C97.2437 109.747 96.9114 110.023 96.5124 110.168Z" fill="white"/>
<path d="M76.8132 106.441L71.6725 107.827C70.8987 108.038 70.1491 107.505 69.9983 106.636C69.9129 106.235 69.9794 105.818 70.186 105.46C70.3925 105.102 70.7258 104.825 71.1265 104.679L71.1353 104.677L76.2761 103.291C77.0508 103.085 77.7971 103.624 77.943 104.495C78.026 104.894 77.9581 105.308 77.7513 105.665C77.5445 106.021 77.2123 106.296 76.8132 106.441Z" fill="white"/>
<path d="M98.8739 124.017L75.507 130.314C74.7322 130.52 73.9859 129.981 73.84 129.111C73.7571 128.711 73.825 128.297 74.0317 127.941C74.2385 127.584 74.5708 127.309 74.9698 127.164L98.3367 120.867C99.1105 120.656 99.8601 121.189 100.011 122.058C100.096 122.459 100.03 122.875 99.8233 123.234C99.6167 123.592 99.2834 123.869 98.8827 124.015L98.8739 124.017Z" fill="white"/>
<path d="M97.6931 117.093L74.3263 123.39C73.5521 123.599 72.8036 123.064 72.6543 122.195C72.5695 121.794 72.6366 121.377 72.8438 121.02C73.051 120.662 73.3848 120.385 73.7858 120.24L73.7891 120.239L97.1559 113.942C97.9307 113.736 98.677 114.275 98.8229 115.146C98.9059 115.545 98.8379 115.96 98.6312 116.316C98.4244 116.672 98.0922 116.947 97.6931 117.093Z" fill="white"/>
<path d="M84.8777 85.3009C85.3805 81.5923 83.1547 78.2617 79.9061 77.8617C76.6575 77.4617 73.6164 80.1439 73.1135 83.8524C72.6106 87.561 74.8365 90.8916 78.0851 91.2916C81.3337 91.6916 84.3748 89.0094 84.8777 85.3009Z" fill="#39281F"/>
<defs>
<clipPath id="clip0_96_126">
<rect width="305" height="234" fill="white" transform="translate(15 75)"/>
</clipPath>
</defs>
</svg>
