<svg width="226" height="226" viewBox="0 0 226 226" fill="none" xmlns="http://www.w3.org/2000/svg">
<g clip-path="url(#clip0_80_170)">
<path d="M161.084 161.025H104.584V84.5588L153.438 111.322L161.084 161.025Z" fill="#392E25"/>
<path d="M115.022 147.529C135.281 147.529 151.704 131.106 151.704 110.847C151.704 90.5882 135.281 74.165 115.022 74.165C94.7632 74.165 78.3401 90.5882 78.3401 110.847C78.3401 131.106 94.7632 147.529 115.022 147.529Z" fill="#DFB099"/>
<path d="M93.9642 152.954L92.307 136.202L125.4 130.014L144.942 177.593L110.957 216.675L86.7424 169.096L93.9642 152.954Z" fill="#DFB099"/>
<path d="M194.156 191.628C193.744 192.057 193.323 192.482 192.903 192.903C191.569 194.237 190.21 195.532 188.82 196.79C168.005 215.669 141.297 226 113 226C86.9123 226 62.1755 217.219 42.1626 201.055C42.1498 201.046 42.1413 201.038 42.1286 201.025C41.5211 200.537 40.9221 200.04 40.3231 199.534C40.4293 199.228 40.544 198.927 40.6587 198.629C47.0946 181.862 59.805 173.659 67.5196 170.069C71.3429 168.289 73.9385 167.639 73.9385 167.639L82.9955 151.326L89.3719 163.221L94.0703 171.989L113.348 207.958L129.98 166.548L135.133 153.71L136.454 150.422L142.737 155.311L148.684 159.937L160.66 162.58L170.375 164.725L183.57 167.639C188.905 171.985 192.151 180.252 193.965 190.524C194.033 190.889 194.097 191.259 194.156 191.628Z" fill="#DEDEDE"/>
<path d="M95.727 69.1608C100.195 61.6552 108.402 56.5055 117.103 55.7465C125.805 54.9875 134.779 58.6387 140.48 65.2573C143.876 69.2014 146.103 74.0316 149.414 78.048C156.54 86.691 168.689 91.7446 171.802 102.505C173.16 107.2 172.483 112.213 171.796 117.052C171.207 121.2 170.618 125.348 170.029 129.496C169.57 132.724 169.131 136.127 170.341 139.154C171.761 142.706 175.159 145.033 177.357 148.164C181.095 153.491 180.822 161.292 176.72 166.345C174.941 168.536 172.582 170.189 170.717 172.308C168.851 174.426 167.468 177.323 168.249 180.035C169.746 185.231 177.894 186.477 178.788 191.81C179.245 194.537 177.362 197.259 174.894 198.506C172.427 199.753 169.522 199.789 166.778 199.456C156.347 198.188 146.69 191.67 141.611 182.472C136.533 173.273 136.163 161.628 140.648 152.126C144.331 144.321 151.177 137.425 151.102 128.795C151.061 124.094 148.905 119.703 146.796 115.501C142.481 106.9 138.165 98.2995 133.849 89.6989C131.537 85.0918 128.854 80.1271 124.095 78.148C120.417 76.6184 116.243 77.2117 112.309 77.8373C108.375 78.4629 104.207 79.0719 100.518 77.5689C96.8284 76.0659 94.0408 71.6003 95.7986 68.0254" fill="#392E25"/>
<path d="M102.155 69.5527C95.0681 67.2198 87.118 70.9648 82.3201 76.6786C77.5221 82.3925 75.1948 89.7229 72.9776 96.847C71.7076 100.928 70.4376 105.008 69.1677 109.089C67.973 112.928 66.7783 116.766 65.5836 120.605C64.1784 125.12 62.7617 129.917 63.915 134.503C64.7487 137.819 66.894 140.829 66.9402 144.248C66.9884 147.818 64.7522 150.953 62.7925 153.939C60.8328 156.924 58.9932 160.471 59.9269 163.918C61.3471 169.161 68.6364 172.043 68.2368 177.46C68.1035 179.268 67.058 180.94 67.077 182.753C67.1011 185.059 68.9068 187.052 71.0224 187.971C73.1379 188.89 75.5176 188.94 77.8238 188.899C84.8975 188.775 91.9584 187.935 98.8638 186.396C101.521 185.804 104.222 185.078 106.434 183.491C108.645 181.904 110.295 179.275 110.007 176.568C109.559 172.35 105.024 169.957 102.735 166.386C100.488 162.878 100.54 158.434 99.5703 154.382C98.2382 148.813 94.9483 143.952 92.4785 138.786C83.1934 119.365 86.4438 94.6111 100.428 78.2457C101.664 76.7987 103.015 75.343 103.531 73.511C104.047 71.679 103.382 69.3448 101.59 68.7039" fill="#392E25"/>
<path d="M192.903 33.0971C171.56 11.7545 143.183 0 113 0C82.8171 0 54.4397 11.7545 33.0971 33.0971C11.7545 54.4396 0 82.8171 0 113C0 140.549 9.79191 166.594 27.736 187.159C29.448 189.126 31.2364 191.042 33.0971 192.903C33.5347 193.34 33.9765 193.778 34.4225 194.203C35.612 195.354 36.8227 196.48 38.0547 197.572C38.8023 198.239 39.5585 198.893 40.3232 199.534C40.9222 200.04 41.5211 200.537 42.1286 201.025C42.1414 201.038 42.1499 201.047 42.1626 201.055C62.1755 217.219 86.9123 226 113 226C141.297 226 168.005 215.669 188.82 196.79C190.21 195.532 191.569 194.237 192.903 192.903C193.323 192.482 193.744 192.058 194.156 191.628C195.303 190.447 196.416 189.245 197.504 188.026C215.928 167.329 226 140.94 226 113C226 82.8171 214.245 54.4396 192.903 33.0971ZM197.227 186.968C196.165 188.175 195.078 189.364 193.965 190.524C192.232 192.329 190.443 194.08 188.595 195.766C187.894 196.412 187.185 197.041 186.467 197.665C179.215 203.973 171.144 209.36 162.44 213.651C159.385 215.159 156.254 216.531 153.051 217.759C140.609 222.534 127.104 225.15 113 225.15C99.389 225.15 86.3388 222.712 74.2614 218.251C69.3038 216.425 64.5119 214.254 59.9113 211.769C59.2358 211.403 58.5646 211.034 57.8976 210.656C54.3887 208.668 50.9944 206.497 47.7361 204.152C45.302 202.406 42.94 200.566 40.6588 198.629C39.8601 197.954 39.07 197.27 38.2926 196.569C37.0266 195.443 35.7862 194.284 34.5755 193.094C32.2815 190.847 30.0894 188.506 27.9951 186.072C11.0834 166.429 0.849624 140.889 0.849624 113C0.849624 51.1601 51.1601 0.849624 113 0.849624C174.84 0.849624 225.15 51.1601 225.15 113C225.15 141.318 214.602 167.215 197.227 186.968Z" fill="#D2D1D1"/>
</g>
<defs>
<clipPath id="clip0_80_170">
<rect width="226" height="226" fill="white"/>
</clipPath>
</defs>
</svg>
