<svg width="450" height="308" viewBox="0 0 450 308" fill="none" xmlns="http://www.w3.org/2000/svg">
<g clip-path="url(#clip0_8_419)">
<path d="M407.476 306.573H312.06V303.868C312.06 301.519 313.07 299.266 314.868 297.606C316.665 295.945 319.103 295.011 321.646 295.011H397.89C400.432 295.011 402.87 295.945 404.668 297.606C406.466 299.266 407.476 301.519 407.476 303.868V306.573Z" fill="#E6E6E6"/>
<path d="M357.535 295.551L360.437 294.472C330.076 224.842 333.001 136.998 358.665 61.6437C361.714 52.9128 361.934 43.549 359.298 34.7041C356.662 25.8593 351.285 17.9194 343.829 11.8611C328.933 -0.421438 308.396 -3.41357 290.23 4.05158C272.299 11.4215 269.827 24.2587 269.827 37.0335H272.956C272.956 23.397 276.109 13.0188 291.502 6.69263C308.527 -0.303587 327.78 2.5026 341.746 14.0181C348.749 19.708 353.8 27.1655 356.275 35.4729C358.751 43.7803 358.545 52.5753 355.681 60.7757C329.721 137 326.967 225.447 357.535 295.551Z" fill="#E6E6E6"/>
<path d="M272.173 79.6684C278.221 79.6684 283.123 75.1389 283.123 69.5516C283.123 63.9643 278.221 59.4348 272.173 59.4348C266.126 59.4348 261.224 63.9643 261.224 69.5516C261.224 75.1389 266.126 79.6684 272.173 79.6684Z" fill="#E6E6E6"/>
<path d="M255.311 87.1882V68.0193H258.536V87.1882C259.462 87.534 260.228 88.1665 260.704 88.9771C261.18 89.7878 261.336 90.7262 261.146 91.6314C260.955 92.5367 260.429 93.3526 259.659 93.9391C258.889 94.5257 257.922 94.8465 256.924 94.8465C255.925 94.8465 254.958 94.5257 254.188 93.9391C253.418 93.3526 252.892 92.5367 252.702 91.6314C252.511 90.7262 252.667 89.7878 253.143 88.9771C253.619 88.1665 254.385 87.534 255.311 87.1882Z" fill="#E6E6E6"/>
<path d="M239.717 53.2923C239.722 48.8858 241.619 44.6613 244.991 41.5454C248.363 38.4296 252.936 36.6769 257.705 36.6719H287.424C292.195 36.6719 296.77 38.423 300.144 41.5399C303.517 44.6568 305.412 48.8843 305.412 53.2923C305.412 57.7003 303.517 61.9278 300.144 65.0447C296.77 68.1617 292.195 69.9127 287.424 69.9127H257.705C252.936 69.9077 248.363 68.1551 244.991 65.0392C241.619 61.9233 239.722 57.6988 239.717 53.2923Z" fill="#DEDEDE"/>
<path d="M197.843 156.217C200.827 120.943 216.083 104.137 206.314 93.5981C196.957 83.5028 170.598 85.5882 153.67 95.2753C108.012 121.404 91.2844 225.542 150.04 276.422C205.872 324.77 311.686 309.285 335.201 269.713C340.688 260.479 345.047 244.293 337.017 234.49C317.08 210.152 244.594 254.234 212.365 226.662C193.266 210.322 196.205 175.575 197.843 156.217Z" fill="#7C543F"/>
<path d="M232.745 138.693C231.636 139.164 230.77 140.017 230.331 141.069C229.891 142.121 229.914 143.29 230.394 144.328C230.495 144.537 230.615 144.738 230.752 144.929L220.952 157.02L225.842 163.773L237.329 145.87C238.143 145.283 238.723 144.464 238.981 143.541C239.238 142.617 239.157 141.641 238.751 140.765C238.514 140.268 238.174 139.819 237.75 139.444C237.326 139.068 236.826 138.774 236.278 138.577C235.731 138.38 235.147 138.285 234.56 138.297C233.973 138.309 233.394 138.427 232.856 138.646C232.819 138.661 232.782 138.676 232.745 138.693Z" fill="#DFB099"/>
<path d="M232.737 159.538C233.378 160.064 231.599 160.713 229.717 159.689C229.179 159.393 228.949 159.27 228.888 159.348C228.737 159.544 229.621 160.986 229.385 164.19C229.239 166.102 225.802 169.697 221.899 173.203C216.623 177.944 210.487 182.517 210.487 182.517L208.333 180.924L185.745 164.19L181.932 159.315C182.281 157.39 182.806 155.495 183.5 153.651C184.455 151.099 185.591 148.608 186.9 146.193C187.602 144.879 188.322 143.627 189.012 142.475L201.114 154.797L211.256 165.118C211.256 165.118 214.209 160.724 216.496 159.527C216.788 159.355 217.119 159.25 217.464 159.22C219.776 159.119 219.915 157.956 217.234 155.423C214.554 152.891 217.936 155.256 220.32 154.574C222.704 153.892 220.32 154.574 220.822 152.868C221.325 151.163 228.011 147.742 228.011 147.742L228.289 147.971L233.342 152.091L234.788 153.271C234.788 153.271 233.209 157.274 232.773 158.118C232.337 158.963 232.102 159.007 232.737 159.538Z" fill="#DEDEDE"/>
<path d="M365.93 237.205L366.177 231.038L340.55 227.226L340.186 236.327L365.93 237.205Z" fill="#DFB099"/>
<path d="M361.278 239.062L361.035 229.188L365.604 229.344L372.979 220.215C373.344 219.764 373.854 219.433 374.437 219.269C375.02 219.105 375.643 219.118 376.218 219.305C376.792 219.492 377.286 219.844 377.629 220.309C377.972 220.775 378.144 221.329 378.122 221.891L377.653 233.621L373.054 235.488L377.541 236.432L377.364 240.854L361.278 239.062Z" fill="#322B2B"/>
<path d="M221.698 239.606L302.869 241.508C302.869 241.508 337.921 243.378 346.145 238.435L354.818 237.424L355.288 225.653C355.288 225.653 349.984 225.689 346.935 224.377C343.886 223.064 346.005 221.458 343.098 223.037C340.191 224.617 340.498 224.806 338.251 224.081C336.003 223.355 232.932 208.839 232.932 208.839L221.698 239.606Z" fill="#322B2B"/>
<path d="M328.659 234.498L333.38 230.133L317.399 211.233L310.433 217.677L328.659 234.498Z" fill="#DFB099"/>
<path d="M323.883 230.7L330.973 223.309L334.207 226.294L346.333 224.237C346.932 224.135 347.551 224.213 348.098 224.459C348.646 224.705 349.094 225.107 349.377 225.605C349.66 226.103 349.764 226.671 349.673 227.228C349.581 227.784 349.3 228.299 348.87 228.697L339.892 237.001L335.145 235.48L337.741 238.992L334.356 242.123L323.883 230.7Z" fill="#322B2B"/>
<path d="M189.674 198.532L190.481 215.864C191.431 236.267 215.75 248.616 234.607 237.963C234.955 237.767 235.304 237.563 235.653 237.353C235.653 237.353 242.802 235.579 242.585 232.77C242.368 229.96 244.115 228.593 245.66 229.359C247.206 230.125 267.442 203.591 267.442 203.591C267.442 203.591 309.485 222.968 318.76 227.53C318.76 227.53 327.481 214.931 326.848 215.064C326.216 215.196 274.836 181.968 274.836 181.968C274.836 181.968 266.465 174.141 256.082 179.309C255.865 180.068 256.05 180.094 256.05 180.094L221.75 205.918L216.904 197.414L189.674 198.532Z" fill="#322B2B"/>
<path d="M222.014 176.865C221.949 177.665 221.826 178.461 221.645 179.246C221.398 180.383 221 181.488 220.459 182.534C220.459 182.534 220.459 183.702 218.039 187.616C215.618 191.53 218.644 189.853 220.459 192.76C222.275 195.661 220.459 194.325 218.444 196.193C217.864 196.736 217.452 197.413 217.251 198.153C217.05 198.894 217.067 199.67 217.301 200.403C217.301 200.403 191.305 200.419 186.464 198.742C181.624 197.065 180.522 187.616 184.861 186.682C189.193 185.749 183.548 184.821 181 182.668C178.453 180.516 183.548 176.993 183.548 176.993C183.548 176.993 181.448 173.644 181.624 162.401C181.648 161.367 181.752 160.336 181.932 159.315C182.281 157.39 182.806 155.495 183.499 153.651C184.455 151.099 185.591 148.608 186.9 146.193C187.602 144.879 188.322 143.627 189.012 142.475C189.121 142.296 189.224 142.123 189.333 141.949C190.646 139.802 191.844 138.047 192.637 136.923C193.248 136.051 193.617 135.559 193.617 135.559L198.022 128.481L212.726 134.849L211.891 145.265L214.426 153.12L215.594 156.737L216.496 159.527L217.888 163.849C217.888 163.849 217.506 163.866 217.96 164.442C220.05 167.009 221.405 170.023 221.899 173.203C222.074 174.416 222.112 175.644 222.014 176.865Z" fill="#DEDEDE"/>
<path d="M264.478 177.987L264.202 177.905L229.009 167.433L241.977 128.123C242.235 127.34 242.683 126.621 243.285 126.021C243.887 125.422 244.629 124.956 245.455 124.659C246.281 124.363 247.168 124.244 248.051 124.31C248.934 124.377 249.789 124.628 250.551 125.044L273.041 137.321C274.821 138.292 276.176 139.81 276.868 141.61C277.56 143.409 277.545 145.377 276.827 147.167L264.478 177.987Z" fill="#322B2B"/>
<path d="M264.621 180.486L229.144 169.931L242.113 130.62C242.371 129.837 242.818 129.119 243.421 128.519C244.023 127.919 244.765 127.453 245.591 127.157C246.416 126.86 247.304 126.741 248.187 126.807C249.069 126.874 249.924 127.125 250.687 127.541L274.251 138.411C277.791 140.343 277.708 145.344 276.064 149.447L264.621 180.486Z" fill="#DEDEDE"/>
<path d="M261.069 183.331C260.252 183.757 259.348 184.022 258.415 184.107C257.481 184.193 256.539 184.099 255.647 183.83L232.971 177.083C231.232 176.557 229.783 175.425 228.935 173.926C228.087 172.427 227.907 170.682 228.433 169.062L239.802 134.601C240.029 133.912 240.403 133.273 240.901 132.72C241.399 132.166 242.012 131.71 242.703 131.379C243.395 131.047 244.151 130.847 244.927 130.789C245.704 130.731 246.485 130.816 247.225 131.041L270.724 138.17C271.844 138.51 272.878 139.053 273.767 139.768C274.655 140.484 275.38 141.356 275.897 142.335C276.415 143.313 276.715 144.377 276.779 145.464C276.844 146.551 276.673 147.64 276.275 148.665L264.119 179.976C263.574 181.398 262.49 182.589 261.069 183.331Z" fill="#7C543F"/>
<path d="M211.895 128.602C220.865 128.602 228.136 121.883 228.136 113.595C228.136 105.307 220.865 98.5884 211.895 98.5884C202.925 98.5884 195.653 105.307 195.653 113.595C195.653 121.883 202.925 128.602 211.895 128.602Z" fill="#DFB099"/>
<path d="M156.974 128.828C158.464 131.497 160.908 133.608 163.891 134.802C165.081 135.303 166.333 135.669 167.618 135.892C167.982 134.561 168.563 133.289 169.343 132.12C169.083 133.437 169.083 134.787 169.343 136.105C171.302 136.253 173.272 136.027 175.132 135.441C176.959 134.867 178.616 133.907 179.971 132.639C181.327 131.37 182.343 129.827 182.941 128.132C184.235 124.154 182.841 119.905 182.731 115.753C182.618 111.601 184.752 106.634 189.214 106.12C192.611 105.729 192.191 106.033 194.632 108.251C191.218 111.756 199.543 127.28 204.01 126.594C206.536 126.206 208.394 124.353 208.894 124.418C211.452 130.206 203.757 138.414 209.86 141.109L209.407 140.555C206.213 135.68 215.665 127.444 212.47 122.569C211.58 121.205 210.654 119.605 211.205 118.097C211.728 116.662 214.376 116.208 214.935 117.514C214.027 114.521 216.562 111.008 219.93 110.703C222.922 110.43 222.749 111.218 225.602 111.937C225.966 110.801 226.491 109.715 227.164 108.707C226.936 109.857 226.908 111.034 227.081 112.192C228.11 112.306 229.15 112.102 230.041 111.613C232.675 110.154 232.754 106.388 230.944 104.096C229.131 101.803 226.095 100.671 223.165 99.8143C223.138 94.0897 206.467 91.3493 203.401 96.6715C203.086 92.3622 197.739 89.4593 193.134 90.1913C188.528 90.9234 184.895 94.3355 182.68 98.1387C180.465 101.939 179.366 106.194 177.744 110.242C176.123 114.29 173.805 118.326 169.923 120.728C166.041 123.126 160.271 123.344 157.03 120.235C156.291 121.563 155.901 123.032 155.891 124.525C155.881 126.018 156.252 127.492 156.974 128.828Z" fill="#322B2B"/>
<path d="M173.639 197.452C173.975 197.203 174.339 196.99 174.726 196.816C180.943 193.957 200.275 186.536 215.391 186.841C244.476 187.427 281.49 217.085 272.876 237.001C266.321 252.156 233.733 260.778 209.945 253.882C176.62 244.222 163.466 204.946 173.639 197.452Z" fill="#7C543F"/>
<path d="M52.8951 306.63C43.3913 304.974 34.9788 265.413 53.6772 245.93C60.0835 239.254 68.0746 236.349 78.7042 233.645C139.885 218.082 186.548 232.914 192.819 236.536C199.076 240.149 210.044 294.589 196.018 302.295C188.126 306.63 172.485 308.798 164.735 303.74C153.331 296.297 172.472 276.991 163.952 263.995C154.285 249.249 103.375 244.281 77.8512 258.937C50.6201 274.573 106.789 316.025 52.8951 306.63Z" fill="#F2F2F2"/>
<path d="M116.436 239.369H80.1282C71.1653 231.432 64.7569 223.784 69.8876 217.434C69.8876 215.609 70.6722 213.859 72.0689 212.568C73.4657 211.278 75.36 210.553 77.3353 210.553H119.229C121.204 210.553 123.099 211.278 124.495 212.568C125.892 213.859 126.677 215.609 126.677 217.434C128.63 224.669 125.14 231.982 116.436 239.369Z" fill="#CCCCCC"/>
<path d="M109.916 201.89C109.571 201.905 109.23 201.821 108.939 201.65C108.647 201.48 108.42 201.231 108.287 200.937C108.154 200.643 108.122 200.318 108.195 200.007C108.268 199.696 108.443 199.413 108.697 199.196L108.812 198.773C108.797 198.739 108.781 198.705 108.766 198.671C108.419 197.914 107.838 197.268 107.095 196.815C106.352 196.362 105.48 196.122 104.59 196.125C103.7 196.128 102.831 196.374 102.091 196.832C101.352 197.291 100.776 197.94 100.435 198.7C99.072 201.732 97.3371 204.77 96.9099 207.976C96.7218 209.393 96.8011 210.83 97.1445 212.222C93.944 205.772 92.282 198.76 92.2713 191.664C92.2707 189.884 92.3777 188.104 92.5921 186.335C92.7692 184.884 93.0149 183.443 93.3293 182.013C95.0447 174.254 98.7277 166.981 104.076 160.792C106.664 159.487 108.758 157.48 110.074 155.042C110.551 154.166 110.888 153.23 111.074 152.264C110.782 152.3 109.973 148.191 110.194 147.939C109.787 147.368 109.058 147.085 108.614 146.528C106.404 143.759 103.358 144.242 101.769 148.005C98.3726 149.589 98.3397 152.215 100.423 154.741C101.749 156.348 101.931 158.523 103.095 160.243C102.975 160.385 102.85 160.522 102.731 160.664C100.543 163.263 98.6365 166.054 97.0381 168.997C97.4268 165.7 96.9628 162.365 95.6844 159.266C94.3888 156.378 91.9603 153.946 89.8217 151.449C87.2529 148.45 81.9853 149.759 81.5327 153.561C81.5283 153.597 81.5241 153.634 81.5199 153.671C81.8375 153.837 82.1485 154.012 82.4527 154.198C82.8349 154.434 83.1311 154.771 83.3024 155.165C83.4737 155.559 83.5122 155.992 83.4127 156.407C83.3133 156.822 83.0806 157.199 82.7452 157.489C82.4098 157.78 81.9872 157.969 81.5329 158.034L81.4864 158.041C81.5996 159.099 81.7996 160.147 82.0848 161.177C79.3412 170.98 85.2644 174.551 93.7218 174.711C93.9085 174.799 94.0904 174.888 94.2771 174.972C92.6712 179.177 91.6639 183.557 91.2805 188.002C91.0634 190.624 91.0762 193.259 91.3188 195.879L91.3044 195.786C90.6916 192.872 89.0093 190.243 86.5414 188.343C82.876 185.561 77.6975 184.536 73.7431 182.3C73.3229 182.051 72.8342 181.917 72.3348 181.916C71.8354 181.915 71.3461 182.046 70.9245 182.293C70.503 182.541 70.1668 182.895 69.9556 183.313C69.7444 183.731 69.6671 184.196 69.7326 184.654C69.7379 184.686 69.7433 184.719 69.7488 184.751C70.3383 184.973 70.9122 185.229 71.4673 185.516C71.785 185.682 72.0959 185.858 72.4001 186.044C72.7824 186.279 73.0785 186.617 73.2498 187.011C73.4211 187.405 73.4596 187.838 73.3601 188.252C73.2607 188.667 73.028 189.044 72.6926 189.334C72.3572 189.625 71.9346 189.815 71.4804 189.88L71.4338 189.886C71.4003 189.891 71.3716 189.895 71.3381 189.899C72.3453 192.121 73.7589 194.167 75.5171 195.946C77.2325 204.504 84.6005 205.315 92.482 202.823H92.4868C93.3515 206.295 94.6045 209.675 96.2254 212.908H109.581C109.629 212.771 109.672 212.629 109.715 212.492C108.479 212.564 107.238 212.495 106.019 212.289C107.01 211.165 108.001 210.033 108.992 208.909C109.014 208.888 109.035 208.866 109.054 208.843C109.557 208.268 110.064 207.697 110.567 207.122L110.567 207.122C110.594 205.359 110.375 203.601 109.916 201.89Z" fill="#CCCCCC"/>
<path d="M155.469 237.572C155.69 238.167 156.11 238.683 156.669 239.045C157.227 239.406 157.896 239.595 158.577 239.584L171.897 239.267C172.584 239.254 173.248 239.037 173.79 238.647C174.332 238.257 174.723 237.716 174.904 237.103L176.789 218.481C177.458 218.761 178.186 218.899 178.92 218.885C180.208 218.855 181.43 218.354 182.318 217.492C183.206 216.629 183.686 215.476 183.654 214.286C183.621 213.096 183.079 211.967 182.145 211.146C181.212 210.326 179.964 209.882 178.676 209.912C178.383 209.911 178.09 209.939 177.803 209.996C177.491 209.684 177.112 209.436 176.69 209.267C176.268 209.099 175.812 209.014 175.352 209.019L154.864 209.508C154.694 209.513 154.525 209.533 154.358 209.566C153.909 209.643 153.483 209.808 153.109 210.051C152.734 210.293 152.421 210.607 152.188 210.97C151.956 211.334 151.811 211.74 151.763 212.16C151.714 212.58 151.764 213.004 151.908 213.405L155.469 237.572ZM177.175 217.216L178.517 212.779C178.669 212.266 178.673 211.725 178.527 211.211C178.592 211.211 178.649 211.182 178.715 211.182C179.634 211.165 180.523 211.485 181.188 212.072C181.852 212.66 182.238 213.467 182.259 214.317C182.281 215.166 181.937 215.989 181.303 216.605C180.669 217.22 179.797 217.578 178.877 217.601C178.283 217.618 177.694 217.485 177.175 217.216Z" fill="#CCCCCC"/>
<path d="M154.358 209.566C154.795 211.872 159.703 213.493 165.604 213.211C171.03 212.98 175.467 211.22 176.28 209.133C175.979 209.051 175.666 209.012 175.352 209.019L154.864 209.508C154.694 209.513 154.525 209.533 154.358 209.566Z" fill="white"/>
<path d="M0.713328 307.504L449.287 307.674C449.476 307.674 449.657 307.604 449.791 307.481C449.925 307.357 450 307.189 450 307.015C450 306.84 449.925 306.672 449.791 306.548C449.657 306.425 449.476 306.355 449.287 306.355L0.713328 306.185C0.524141 306.185 0.342704 306.255 0.208929 306.378C0.0751529 306.502 0 306.67 0 306.844C0 307.019 0.0751529 307.187 0.208929 307.31C0.342704 307.434 0.524141 307.504 0.713328 307.504Z" fill="#CACACA"/>
<path d="M252.304 160.203C251.084 160.244 249.93 160.724 249.087 161.539C248.243 162.355 247.778 163.442 247.789 164.57C247.795 164.799 247.822 165.027 247.869 165.252L233.791 172.932L235.495 180.903L253.549 168.457C254.544 168.205 255.421 167.655 256.043 166.894C256.665 166.133 256.996 165.203 256.986 164.249C256.974 163.707 256.847 163.172 256.612 162.675C256.377 162.177 256.038 161.728 255.614 161.352C255.191 160.976 254.691 160.68 254.145 160.483C253.598 160.285 253.014 160.189 252.427 160.199C252.386 160.2 252.345 160.201 252.304 160.203Z" fill="#DFB099"/>
<path d="M240.772 178.51C240.395 178.044 240.233 177.849 240.148 177.903C239.927 178.026 240.139 179.673 238.589 182.543C236.406 186.575 213.52 192.752 213.52 192.752L210.703 187.985L198.309 167.039L194.037 150.25C193.887 149.665 193.815 149.065 193.821 148.464C197.63 145.987 201.674 143.836 205.905 142.037C207.596 142.923 208.885 144.341 209.536 146.033L218.068 168.136L221.472 176.961C221.472 176.961 227.477 172.993 229.656 173.721C231.831 174.454 232.449 173.427 231.027 170.137C229.605 166.848 231.739 170.234 234.222 170.449C236.711 170.667 234.222 170.449 235.398 169.053C236.573 167.657 244.171 166.872 244.171 166.872L244.333 167.183L247.277 172.78L248.12 174.388C248.12 174.388 244.999 177.517 244.245 178.141C243.489 178.769 243.255 178.726 243.625 179.441C243.991 180.154 242.08 180.121 240.772 178.51Z" fill="#DEDEDE"/>
</g>
<defs>
<clipPath id="clip0_8_419">
<rect width="450" height="308" fill="white"/>
</clipPath>
</defs>
</svg>
